{"title":"Nat Geo- Mystery Gorillas&amp;Search for the Great Apes","uid":6135094,"size":1479330610,"categoryP":"video","categoryS":"tv_shows","magnet":"?xt=urn:btih:2cc46f1ae38d78fcaa3aad1b6feca3b9557b85b2&amp;dn=Nat+Geo-+Mystery+Gorillas%26Search+for+the+Great+Apes&amp;tr=udp%3A%2F%2Ftracker.openbittorrent.com%3A80&amp;tr=udp%3A%2F%2Fopen.demonii.com%3A1337&amp;tr=udp%3A%2F%2Ftracker.coppersurfer.tk%3A6969&amp;tr=udp%3A%2F%2Fexodus.desync.com%3A6969","seeders":0,"leechers":1,"uploader":"k4n4bu5","files":8,"time":1296272439,"description":"Mystery Gorillas\n\nJoin Primatologist Mireya Mayor as she travels into the heart of the jungle to explore the great apes' secret world. Get a tate and intimate look into the family life of a gorilla group and witness individuals performing unexpected feats in the wild. Spectacularly photographed and featuring new scientific insight, Mystery Gorillas presents startlingly familiar animals like you've never seen them before.\n\nGeneral\nComplete name Mystery Gorillas.avi\nFormat : AVI\nFormat/Info : Audio Video Interleave\nFile size : 701 MiB\nDuration : 50mn 1s\nOverall bit rate : 1 959 Kbps\nMovie name : Mystery Gorillas\nWriting application : Lavf52.33.0\nOriginal source form/Name : GORILLAS_AND_GREAT_APES\n\nVideo\nID : 0\nFormat :                  MPEG-4 Visual\nFormat profile :          Simple@L3\nFormat settings, BVOP :   No\nFormat settings, QPel :   No\nFormat settings, GMC :    No warppoints\nFormat settings, Matrix : Default (H.263)\nCodec ID :                DX50\nCodec ID/Hint :           DivX 5\nDuration :                50mn 1s\nBit rate :                1 500 Kbps\nWidth :                   640 pixels\nHeight :                  358 pixels\nDisplay aspect ratio :    16:9\nFrame rate :              29.970 fps\nColor space :             YUV\nChroma subsampling :      4:2:0\nBit depth :               8 bits\nScan type :               Progressive\nBits/(Pixel*Frame) :      0.218\nStream size :             537 MiB (77%)\nWriting library :         XviD 1.2.1 (UTC 2008-12-04)\n\nAudio\nID :                   1\nFormat :               AC-3\nFormat/Info :          Audio Coding 3\nMode extension :       CM (complete main)\nCodec ID :             2000\nDuration :             50mn 1s\nBit rate mode :        Constant\nBit rate :             448 Kbps\nChannel(s) :           6 channels\nChannel positions :    Front: L C R, Side: L R, LFE\nSampling rate :        48.0 KHz\nStream size :          160 MiB (23%)\nAlignment :            Aligned on interleaves\nInterleave, duration : 32 ms (0.96 video frame)\n\n\nSearch For The Great Apes\n\nThis captivating classic National Geographic film chronicles the ground-breaking fieldwork of Dian Fossey and Birute Galdikas--and the world-wide efforts of these didicated scientists to better understand the mountain gorilla and elusive oragutan.\n\n\nGeneral\nComplete name:              Search for the Great Apes.avi\nFormat :                    AVI\nFormat/Info :               Audio Video Interleave\nFile size :                 702 MiB\nDuration :                  51mn 12s\nOverall bit rate :          1 916 Kbps\nMovie name :                Search for the Great Apes\nWriting application :       Lavf52.33.0\nOriginal source form/Name : GORILLAS_AND_GREAT_APES\n\nVideo\nID : 0\nFormat :                  MPEG-4 Visual\nFormat profile :          Simple@L3\nFormat settings, BVOP :   No\nFormat settings, QPel :   No\nFormat settings, GMC :    No warppoints\nFormat settings, Matrix : Default (H.263)\nCodec ID :                DX50\nCodec ID/Hint :           DivX 5\nDuration :                51mn 11s\nBit rate :                1 712 Kbps\nWidth :                   600 pixels\nHeight :                  454 pixels\nDisplay aspect ratio :    4:3\nFrame rate :              29.970 fps\nColor space :             YUV\nChroma subsampling :      4:2:0\nBit depth :               8 bits\nScan type :               Progressive\nBits/(Pixel*Frame) :      0.210\nStream size :             627 MiB (89%)\nWriting library :         XviD 1.2.1 (UTC 2008-12-04)\n\nAudio\nID :                   1\nFormat :               AC-3\nFormat/Info :          Audio Coding 3\nMode extension :       CM (complete main)\nCodec ID :             2000\nDuration :             51mn 12s\nBit rate mode :        Constant\nBit rate :             192 Kbps\nChannel(s) :           2 channels\nChannel positions :    Front: L R\nSampling rate :        48.0 KHz\nStream size :          70.3 MiB (10%)\nAlignment :            Aligned on interleaves\nInterleave, duration : 32 ms (0.96 video frame)\n\n\nI wasn't able to find any information regarding this Double Feature DVD at IMDb, sorry for the inconvenience.\n\nIf there are any problems, please let me know. Please remember to seed, thank you.","torrent":{"xt":"urn:btih:2cc46f1ae38d78fcaa3aad1b6feca3b9557b85b2","amp;dn":"Nat+Geo-+Mystery+Gorillas%26Search+for+the+Great+Apes","amp;tr":["udp%3A%2F%2Ftracker.openbittorrent.com%3A80","udp%3A%2F%2Fopen.demonii.com%3A1337","udp%3A%2F%2Ftracker.coppersurfer.tk%3A6969","udp%3A%2F%2Fexodus.desync.com%3A6969"],"infoHash":"2cc46f1ae38d78fcaa3aad1b6feca3b9557b85b2","infoHashBuffer":{"type":"Buffer","data":[44,196,111,26,227,141,120,252,170,58,173,27,111,236,163,185,85,123,133,178]},"announce":[],"urlList":[]}}